<?xml version="1.0" encoding="UTF-8"?><svg xmlns="http://www.w3.org/2000/svg" xmlns:xlink="http://www.w3.org/1999/xlink" contentScriptType="text/ecmascript" width="39pt" zoomAndPan="magnify" contentStyleType="text/css" viewBox="0 0 39 38.999999" height="38.999999pt" preserveAspectRatio="xMidYMid meet" version="1.2"><defs><clipPath xml:id="clip1" id="clip1"><path d="M 3.898438 10 L 21 10 L 21 38.207031 L 3.898438 38.207031 Z M 3.898438 10 "/></clipPath><clipPath xml:id="clip2" id="clip2"><path d="M 18 10 L 34.648438 10 L 34.648438 38.207031 L 18 38.207031 Z M 18 10 "/></clipPath><clipPath xml:id="clip3" id="clip3"><path d="M 3.898438 0 L 34.648438 0 L 34.648438 24 L 3.898438 24 Z M 3.898438 0 "/></clipPath></defs><g xml:id="surface1" id="surface1"><g clip-rule="nonzero" clip-path="url(#clip1)"><path style=" stroke:none;fill-rule:nonzero;fill:rgb(23.529053%,81.568909%,100%);fill-opacity:1;" d="M 19.332031 38.054688 C 19.128906 38.054688 18.925781 37.988281 18.753906 37.863281 L 4.296875 27.125 C 4.046875 26.941406 3.898438 26.644531 3.898438 26.332031 L 3.898438 11.683594 C 3.898438 11.316406 4.105469 10.976562 4.429688 10.808594 C 4.753906 10.636719 5.144531 10.667969 5.445312 10.882812 L 19.898438 21.320312 C 20.15625 21.503906 20.308594 21.804688 20.308594 22.121094 L 20.308594 37.066406 C 20.308594 37.4375 20.101562 37.777344 19.773438 37.949219 C 19.632812 38.019531 19.484375 38.054688 19.332031 38.054688 Z M 5.851562 25.832031 L 18.355469 35.117188 L 18.355469 22.628906 L 5.851562 13.601562 Z M 5.851562 25.832031 "/></g><g clip-rule="nonzero" clip-path="url(#clip2)"><path style=" stroke:none;fill-rule:nonzero;fill:rgb(23.529053%,81.568909%,100%);fill-opacity:1;" d="M 19.332031 38.054688 C 19.179688 38.054688 19.03125 38.019531 18.890625 37.945312 C 18.5625 37.777344 18.355469 37.4375 18.355469 37.066406 L 18.355469 22.121094 C 18.355469 21.804688 18.503906 21.507812 18.757812 21.324219 L 33.097656 10.800781 C 33.394531 10.582031 33.789062 10.550781 34.117188 10.722656 C 34.445312 10.890625 34.648438 11.230469 34.648438 11.601562 L 34.648438 26.480469 C 34.648438 26.796875 34.5 27.09375 34.25 27.277344 L 19.90625 37.863281 C 19.738281 37.988281 19.535156 38.054688 19.332031 38.054688 Z M 20.308594 22.625 L 20.308594 35.125 L 32.695312 25.980469 L 32.695312 13.535156 Z M 20.308594 22.625 "/></g><g clip-rule="nonzero" clip-path="url(#clip3)"><path style=" stroke:none;fill-rule:nonzero;fill:rgb(23.529053%,81.568909%,100%);fill-opacity:1;" d="M 19.332031 23.109375 C 19.132812 23.109375 18.933594 23.046875 18.765625 22.925781 L 4.308594 12.488281 C 4.054688 12.304688 3.902344 12.003906 3.898438 11.6875 C 3.898438 11.371094 4.050781 11.070312 4.304688 10.886719 L 18.757812 0.300781 C 19.101562 0.0507812 19.566406 0.0507812 19.90625 0.300781 L 34.25 10.886719 C 34.5 11.074219 34.652344 11.371094 34.648438 11.6875 C 34.648438 12.003906 34.496094 12.300781 34.242188 12.484375 L 19.902344 22.921875 C 19.734375 23.046875 19.53125 23.109375 19.332031 23.109375 Z M 6.546875 11.679688 L 19.332031 20.90625 L 32.011719 11.679688 L 19.328125 2.320312 Z M 6.546875 11.679688 "/></g></g></svg>